<svg xmlns="http://www.w3.org/2000/svg" xmlns:xlink="http://www.w3.org/1999/xlink" version="1.1" id="Your_Icon" x="0px" y="0px" width="100px" height="100px" viewBox="5.0 -10.0 100.0 135.0" enable-background="new 0 0 100 100" xml:space="preserve">
<path d="M31.212,30.172c2.987,0,5.417-2.43,5.417-5.417c0-2.986-2.43-5.416-5.417-5.416c-2.986,0-5.416,2.429-5.416,5.416  C25.797,27.742,28.226,30.172,31.212,30.172z M31.212,21.339c1.884,0,3.417,1.532,3.417,3.416c0,1.884-1.533,3.417-3.417,3.417  c-1.883,0-3.416-1.533-3.416-3.417C27.797,22.871,29.329,21.339,31.212,21.339z M32.213,57.465v22.196c0,0.553-0.448,1-1,1  s-1-0.447-1-1V57.465c0-0.553,0.448-1,1-1S32.213,56.912,32.213,57.465z M26.156,42.609v37.052c0,0.553-0.448,1-1,1s-1-0.447-1-1  V42.609c0-0.552,0.448-1,1-1S26.156,42.057,26.156,42.609z M38.271,42.609v37.052c0,0.553-0.448,1-1,1s-1-0.447-1-1V42.609  c0-0.552,0.448-1,1-1S38.271,42.057,38.271,42.609z M43.476,38.002v13.771c0,1.498-0.624,2.95-1.71,3.984  c-0.194,0.184-0.442,0.275-0.689,0.275c-0.264,0-0.528-0.104-0.725-0.311c-0.38-0.4-0.365-1.033,0.035-1.414  c0.702-0.668,1.089-1.568,1.089-2.535V38.002c0-1.93-1.57-3.5-3.5-3.5H24.451c-1.93,0-3.5,1.57-3.5,3.5v13.771  c0,0.966,0.386,1.865,1.086,2.532c0.4,0.381,0.416,1.015,0.035,1.414c-0.381,0.401-1.014,0.414-1.414,0.035  c-1.085-1.033-1.707-2.484-1.707-3.981V38.002c0-3.033,2.467-5.5,5.5-5.5h13.525C41.009,32.502,43.476,34.969,43.476,38.002z   M67.274,29.722c2.987,0,5.418-2.43,5.418-5.417c0-2.986-2.431-5.416-5.418-5.416c-2.986,0-5.416,2.429-5.416,5.416  C61.858,27.292,64.288,29.722,67.274,29.722z M67.274,20.889c1.885,0,3.418,1.532,3.418,3.416c0,1.884-1.533,3.417-3.418,3.417  c-1.884,0-3.416-1.533-3.416-3.417C63.858,22.421,65.391,20.889,67.274,20.889z M80.294,53.179  c-0.186,0.318-0.521,0.495-0.864,0.495c-0.172,0-0.345-0.044-0.504-0.137c-0.477-0.279-0.637-0.892-0.358-1.368  c0.489-0.836,0.612-1.808,0.346-2.734l-3.391-11.748c-0.596-2.215-2.185-3.635-4.053-3.635h-8.391c-1.868,0-3.457,1.42-4.048,3.617  l-3.396,11.767c-0.266,0.926-0.143,1.897,0.346,2.733c0.278,0.477,0.118,1.089-0.358,1.368c-0.479,0.277-1.089,0.119-1.368-0.358  c-0.767-1.312-0.959-2.837-0.541-4.296l3.391-11.75c0.814-3.032,3.218-5.081,5.975-5.081h8.391c2.757,0,5.16,2.049,5.979,5.099  l3.386,11.73C81.254,50.34,81.062,51.865,80.294,53.179z M78.917,61.495c0.079,0.3,0.015,0.62-0.175,0.865  c-0.189,0.246-0.481,0.39-0.792,0.39h-3.617v17.361c0,0.553-0.447,1-1,1s-1-0.447-1-1V62.75H62.218v17.361c0,0.553-0.447,1-1,1  s-1-0.447-1-1V62.75h-3.616c-0.311,0-0.603-0.144-0.792-0.39c-0.189-0.245-0.254-0.565-0.175-0.865l5.033-19.116  c0.142-0.534,0.688-0.85,1.222-0.713c0.534,0.141,0.853,0.688,0.712,1.222L57.899,60.75h18.753l-4.704-17.861  c-0.141-0.534,0.178-1.081,0.712-1.222c0.534-0.139,1.081,0.177,1.222,0.712L78.917,61.495z M68.275,66.25v13.861  c0,0.553-0.447,1-1,1s-1-0.447-1-1V66.25c0-0.553,0.447-1,1-1S68.275,65.697,68.275,66.25z"/>
</svg>