<svg xmlns="http://www.w3.org/2000/svg" xmlns:xlink="http://www.w3.org/1999/xlink" version="1.1" id="Layer_1" x="0px" y="0px" width="71.467px" height="71.465px" viewBox="3.57335 -7.1465 71.467 96.47775" enable-background="new 0 0 71.467 71.465" xml:space="preserve">
<path fill="#000000" d="M70.983,5.172L66.34,0.529c-0.623-0.623-1.632-0.622-2.254,0l-3.46,3.459l-0.333-0.334  c-0.623-0.624-1.633-0.624-2.257,0l-50.91,50.91c-0.13,0.129-0.237,0.281-0.316,0.448L0.152,69.193  c-0.286,0.607-0.16,1.327,0.313,1.803c0.306,0.307,0.715,0.47,1.13,0.47c0.228,0,0.457-0.049,0.672-0.149l14.225-6.612  c0.168-0.078,0.323-0.186,0.455-0.318l43.678-43.678l2.101,2.099l-23.979,23.98l2.254,2.254l25.107-25.107  c0.3-0.298,0.468-0.704,0.468-1.127c0-0.422-0.168-0.828-0.468-1.127l-3.227-3.227l4.977-4.977c0.298-0.299,0.467-0.704,0.467-1.127  c0-0.423-0.169-0.828-0.467-1.127l-0.335-0.334l3.459-3.459C71.606,6.804,71.606,5.794,70.983,5.172z M9.555,56.671l5.284,5.284  l-9.934,4.617L9.555,56.671z M17.109,59.715l-5.312-5.312L59.164,7.037l3.501,3.5l1.478,1.476c0.002,0.002,0.003,0.002,0.005,0.004  l0.329,0.33L17.109,59.715z M65.27,8.631l-2.388-2.389l2.331-2.33l2.388,2.387L65.27,8.631z"/>
</svg>