<svg xmlns="http://www.w3.org/2000/svg" xmlns:xlink="http://www.w3.org/1999/xlink" xmlns:sketch="http://www.bohemiancoding.com/sketch/ns" width="50px" height="67px" viewBox="2.5 -6.7 50.0 90.45" version="1.1">
    <title>flag_notification</title>
    <description>Created with Sketch (http://www.bohemiancoding.com/sketch)</description>
    <defs/>
    <g id="Page-1" stroke="none" stroke-width="1" fill="none" fill-rule="evenodd" sketch:type="MSPage">
        <path d="M12,55.3858098 L10,55.3858098 L10,13.2107568 L12,13.2072938 C12.133889,13.3547388 12.277783,13.4998668 12.431749,13.6409528 C14.7664,15.7802978 18.133961,16.0821618 22.9674,13.2107568 C28.852641,9.71450479 33.605753,9.32543479 37.123708,10.8380818 C37.857513,11.1536018 38.366338,11.4817268 38.651904,11.7272248 L39,12.0264798 L39,28.6004128 L39,30.7788388 L37.348096,29.3587138 C37.209806,29.2398278 36.871052,29.0213758 36.333686,28.7903198 C33.415417,27.5355248 29.334231,27.8695938 23.988885,31.0451098 C20.290061,33.2424738 17.195052,33.8246948 14.619717,33.1620558 L14.619717,31.0825938 C16.745281,31.8188158 19.473321,31.4013728 22.9674,29.3256428 C28.852641,25.8293908 33.605753,25.4403208 37.123708,26.9529668 L37.123709,13.2107568 C37.123709,13.2107568 36.871052,12.9064898 36.333686,12.6754338 C33.415417,11.4206398 29.334231,11.7547088 23.988885,14.9302238 C18.953932,17.9213428 14.935802,17.8988518 12,15.8534278 L12,55.3858098 Z M12,55.3858098" id="flag_notification" fill="#000000" sketch:type="MSShapeGroup"/>
    </g>
<text x="0.0" y="78.725" font-size="3.35" font-weight="bold" font-family="Helvetica Neue, Helvetica, Arial-Unicode, Arial, Sans-serif" fill="#000000">Created by Pham Thi Dieu Linh</text><text x="0.0" y="82.075" font-size="3.35" font-weight="bold" font-family="Helvetica Neue, Helvetica, Arial-Unicode, Arial, Sans-serif" fill="#000000">from the Noun Project</text></svg>