<svg xmlns="http://www.w3.org/2000/svg" xmlns:xlink="http://www.w3.org/1999/xlink" version="1.1" width="96" height="96" viewBox="4.8 -9.6 96.0 129.6">
<path d="M94 48h-92c-1.1 0-2-0.896-2-2v-24c0-1.104 0.9-2 2-2h92c1.1 0 2 0.896 2 2v24c0 1.104-0.9 2-2 2zM4 44h88v-20h-88v20z" fill="#000000"/>
	<path d="M2 41.556c-0.512 0-1.024-0.196-1.416-0.584-0.78-0.78-0.78-2.048 0-2.828l17.556-17.556c0.78-0.78 2.048-0.78 2.828 0s0.78 2.048 0 2.828l-17.556 17.556c-0.388 0.388-0.9 0.584-1.412 0.584z" fill="#000000"/>
	<path d="M8 47.556c-0.512 0-1.024-0.196-1.416-0.584-0.78-0.78-0.78-2.048 0-2.828l23.556-23.556c0.78-0.78 2.048-0.78 2.828 0s0.78 2.048 0 2.828l-23.556 23.556c-0.388 0.388-0.9 0.584-1.412 0.584z" fill="#000000"/>
	<path d="M28 47.556c-0.512 0-1.024-0.196-1.416-0.584-0.78-0.78-0.78-2.048 0-2.828l23.556-23.556c0.78-0.78 2.048-0.78 2.828 0s0.78 2.048 0 2.828l-23.556 23.556c-0.388 0.388-0.9 0.584-1.412 0.584z" fill="#000000"/>
	<path d="M40 47.556c-0.512 0-1.024-0.196-1.416-0.584-0.78-0.78-0.78-2.048 0-2.828l23.556-23.556c0.78-0.78 2.048-0.78 2.828 0s0.78 2.048 0 2.828l-23.556 23.556c-0.388 0.388-0.9 0.584-1.412 0.584z" fill="#000000"/>
	<path d="M64 47.556c-0.512 0-1.024-0.196-1.416-0.584-0.78-0.78-0.78-2.048 0-2.828l23.556-23.556c0.78-0.78 2.048-0.78 2.828 0s0.78 2.048 0 2.828l-23.556 23.556c-0.388 0.388-0.9 0.584-1.412 0.584z" fill="#000000"/>
	<path d="M76 47.556c-0.512 0-1.024-0.196-1.416-0.584-0.78-0.78-0.78-2.048 0-2.828l18-18c0.772-0.78 2.048-0.78 2.828 0 0.772 0.78 0.772 2.048 0 2.828l-18 18c-0.388 0.388-0.9 0.584-1.412 0.584z" fill="#000000"/>
	<path d="M18 74c-1.1 0-2-0.9-2-2v-24c0-1.104 0.9-2 2-2s2 0.896 2 2v24c0 1.1-0.9 2-2 2z" fill="#000000"/>
	<path d="M24 76h-12c-1.1 0-2-0.9-2-2s0.9-2 2-2h12c1.1 0 2 0.9 2 2s-0.9 2-2 2z" fill="#000000"/> 
	<path d="M78 74c-1.1 0-2-0.9-2-2v-24c0-1.104 0.9-2 2-2s2 0.896 2 2v24c0 1.1-0.9 2-2 2z" fill="#000000"/>
	<path d="M84 76h-12c-1.1 0-2-0.9-2-2s0.9-2 2-2h12c1.1 0 2 0.9 2 2s-0.9 2-2 2z" fill="#000000"/>
</svg>