<?xml version="1.0" encoding="utf-8"?>
<!-- Generator: Adobe Illustrator 15.1.0, SVG Export Plug-In . SVG Version: 6.00 Build 0)  -->
<!DOCTYPE svg PUBLIC "-//W3C//DTD SVG 1.1//EN" "http://www.w3.org/Graphics/SVG/1.1/DTD/svg11.dtd">
<svg  version="1.1" id="Layer_1" xmlns="http://www.w3.org/2000/svg" xmlns:xlink="http://www.w3.org/1999/xlink" x="0px" y="0px"
	 width="100px" height="99.864px" viewBox="0 0 100 99.864" enable-background="new 0 0 100 99.864" xml:space="preserve" stroke="#fffff" fill="#0a3153" >
<g>
	<path  d="M73.361,67.614l-0.183,0.002c-4.809,7.675-13.313,12.803-23.014,12.803c-9.702,0-18.207-5.128-23.015-12.8
		l-0.278-0.008c-1.363-0.053-4.226-0.521-6.825-1.875C24.946,77.542,36.582,85.85,50.165,85.85c13.593,0,25.235-8.321,30.132-20.146
		C77.675,67.083,74.766,67.558,73.361,67.614"/>
	<path  d="M23.339,49.181c1.974-13.048,13.231-23.096,26.826-23.096c13.593,0,24.852,10.046,26.825,23.099
		c1.405,0.026,3.704,0.485,5.737,2.677c-0.729-17.358-15.026-31.206-32.562-31.206c-17.523,0-31.808,13.823-32.564,31.159
		C19.643,49.639,21.948,49.2,23.339,49.181"/>
	<path  d="M47.948,58.629c-1.752-2.225-6.198-2.464-8.031-2.464c-3.556,0-6.938,0.777-9.277,2.131
		c-1.796,1.037-3.691,1.609-5.338,1.609c-0.564,0-1.066-0.078-1.498-0.212c-0.502-0.153-0.905-0.389-1.152-0.701
		c-0.36-0.45-0.444-1.102-0.255-1.935c0.104-0.443,0.396-0.751,0.752-0.981c0.894-0.575,2.235-0.595,2.315-0.595
		c0.216,0,0.406,0.013,0.55,0.039c0.081,0.016,0.165,0.023,0.244,0.023h0.019h0.011c0.749,0,1.358-0.61,1.358-1.358
		c0-0.538-0.313-1.003-0.767-1.223c-0.49-0.324-1.803-1.069-3.434-1.069c-0.118,0-0.248,0.01-0.378,0.019
		c-1.318,0.095-3.045,0.725-4.451,2.998c-0.425,0.687-0.688,1.326-0.85,1.924c-0.414,1.544-0.087,2.769,0.361,3.604
		c0.112,0.215,0.244,0.417,0.388,0.612c1.592,2.2,4.823,3.307,7.069,3.688c0.53,0.092,1.009,0.145,1.393,0.16l0.319,0.007
		c1.486,0,3.641-0.361,5.719-0.707c1.921-0.321,3.906-0.65,5.097-0.65c0.272,0,0.659,0.011,1.122,0.027
		c0.719,0.025,1.613,0.058,2.545,0.058c4.103,0,6.061-0.587,6.755-2.023C48.841,60.977,48.989,59.947,47.948,58.629"/>
	<path  d="M82.545,56.963c-0.154-0.633-0.421-1.315-0.878-2.053c-1.39-2.246-3.093-2.888-4.404-2.996
		c-0.147-0.011-0.29-0.021-0.426-0.021c-1.625,0-2.938,0.745-3.43,1.069c-0.455,0.221-0.767,0.685-0.767,1.223
		c0,0.75,0.608,1.358,1.358,1.358h0.011h0.016c0.082,0,0.163-0.008,0.246-0.025c0.145-0.024,0.332-0.036,0.55-0.036
		c0.08,0,1.464,0.016,2.356,0.62c0.338,0.228,0.611,0.529,0.709,0.955c0.19,0.833,0.109,1.484-0.252,1.935
		c-0.239,0.304-0.623,0.533-1.104,0.69c-0.441,0.143-0.963,0.222-1.547,0.222c-1.65,0-3.545-0.571-5.338-1.608
		c-2.343-1.354-5.722-2.132-9.279-2.132c-1.831,0-6.279,0.239-8.033,2.464c-1.037,1.317-0.889,2.348-0.582,2.979
		c0.694,1.437,2.655,2.023,6.756,2.023c0.931,0,1.825-0.031,2.547-0.058c0.461-0.018,0.85-0.026,1.122-0.026
		c1.188,0,3.171,0.327,5.093,0.65c2.083,0.347,4.234,0.705,5.72,0.705l0.318-0.007c0.398-0.014,0.894-0.068,1.443-0.163
		c2.279-0.399,5.537-1.533,7.091-3.779c0.113-0.171,0.223-0.338,0.319-0.517C82.59,59.625,82.908,58.441,82.545,56.963"/>
	<path  d="M52.332,65.476h-4.384H36.582c0.117,0.296,0.244,0.586,0.376,0.873c2.348,5.097,7.211,8.635,13.207,8.635
		c5.992,0,10.856-3.538,13.203-8.63c0.135-0.29,0.262-0.579,0.38-0.878H52.332z"/>
	<path  d="M38.62,42.386c-2.626,0-4.755,2.127-4.755,4.755c0,2.624,2.129,4.754,4.755,4.754
		c2.625,0,4.754-2.13,4.754-4.754C43.374,44.513,41.245,42.386,38.62,42.386"/>
	<path  d="M61.711,42.386c-2.627,0-4.754,2.127-4.754,4.755c0,2.624,2.127,4.754,4.754,4.754
		c2.625,0,4.754-2.13,4.754-4.754C66.465,44.513,64.336,42.386,61.711,42.386"/>
	<path  d="M42.014,33.558c-4.682,0-11.071,6.154-12.305,7.388c-0.797,0.796-0.797,2.084,0,2.88
		c0.397,0.399,0.917,0.598,1.44,0.598c0.52,0,1.043-0.198,1.44-0.598c2.574-2.571,7.197-6.194,9.425-6.194
		c1.126,0,2.038-0.912,2.038-2.036C44.053,34.469,43.14,33.558,42.014,33.558"/>
	<path  d="M70.621,40.946c-1.234-1.233-7.628-7.387-12.307-7.387c-1.125,0-2.038,0.91-2.038,2.037
		c0,1.123,0.913,2.036,2.038,2.036c2.222,0,6.85,3.623,9.426,6.196c0.398,0.396,0.92,0.597,1.439,0.597
		c0.521,0,1.044-0.2,1.442-0.601C71.416,43.03,71.416,41.742,70.621,40.946"/>
</g>
</svg>
