<?xml version="1.0" encoding="utf-8"?>
<!-- Generator: Adobe Illustrator 15.1.0, SVG Export Plug-In . SVG Version: 6.00 Build 0)  -->
<!DOCTYPE svg PUBLIC "-//W3C//DTD SVG 1.1//EN" "http://www.w3.org/Graphics/SVG/1.1/DTD/svg11.dtd">
<svg version="1.1" id="Layer_1" xmlns="http://www.w3.org/2000/svg" xmlns:xlink="http://www.w3.org/1999/xlink" x="0px" y="0px"
	 width="100px" height="99.864px" viewBox="0 0 100 99.864" enable-background="new 0 0 100 99.864" xml:space="preserve" stroke="#fffff" fill="#0a3153" >
<g>
	<path  d="M38.494,68.741c1.848,4.725,6.16,8.078,11.54,8.078c5.38,0,9.691-3.354,11.541-8.078H38.494z"/>
	<path  d="M62.275,23.592c-0.059-6.705-5.525-10.689-12.242-10.689c-6.705,0-12.164,3.964-12.241,10.651
		c3.607-1.334,7.686-2.038,12.191-2.038C54.533,21.517,58.643,22.232,62.275,23.592"/>
	<path  d="M65.158,51.719c1.152-0.358,1.467-3.243,1.467-3.243c-2.02,2.551-4.963,1.025-4.963,1.025l0.006,0.021
		c-0.59-0.338-1.264-0.547-1.994-0.547c-2.232,0-4.039,1.809-4.039,4.039s1.807,4.039,4.039,4.039c1.658,0,3.084-1.003,3.703-2.436
		l0.002,0.006c3.225,0.65,4.135-3.061,4.135-3.061C66.959,52.215,65.158,51.719,65.158,51.719"/>
	<path  d="M40.394,48.977c-0.729,0-1.404,0.209-1.994,0.548l0.006-0.023c0,0-2.942,1.525-4.963-1.024
		c0,0,0.312,2.884,1.468,3.243c0,0-1.802,0.496-2.354-0.152c0,0,0.91,3.711,4.133,3.061l0.004-0.006
		c0.619,1.433,2.041,2.435,3.703,2.435c2.229,0,4.037-1.808,4.037-4.039S42.625,48.977,40.394,48.977"/>
	<path  d="M77.646,53.99c0-10.434-3.09-18.561-8.709-23.792c-2.008-1.755-4.309-3.167-6.881-4.21
		c-3.506-1.422-7.516-2.163-11.976-2.163c-0.017,0-0.031,0.001-0.047,0.001c-0.017,0-0.031-0.001-0.05-0.001
		c-4.461,0-8.471,0.741-11.976,2.163c-2.573,1.043-4.873,2.455-6.882,4.21c-5.618,5.231-8.706,13.358-8.706,23.792
		c0,0.097-0.084,2.215-0.084,3.211c0,15.296,12.397,27.694,27.696,27.694c15.295,0,27.696-12.398,27.696-27.694
		C77.73,56.205,77.646,54.085,77.646,53.99z M50.034,80.282c-12.728,0-23.08-10.355-23.08-23.081c0-7.299,3.415-13.801,8.723-18.029
		c1.818-1.273,4.093-2.357,6.606-2.357c2.492,0,4.91,1.068,7.183,3.175c0.108,0.098,0.248,0.153,0.394,0.153h0.176h0.174
		c0.146,0,0.286-0.056,0.393-0.153c2.273-2.106,4.689-3.175,7.184-3.175c2.512,0,4.789,1.084,6.605,2.357
		c5.311,4.229,8.725,10.73,8.725,18.029C73.113,69.926,62.76,80.282,50.034,80.282z"/>
</g>
</svg>
