<?xml version="1.0" encoding="utf-8"?>
<!-- Generator: Adobe Illustrator 15.1.0, SVG Export Plug-In . SVG Version: 6.00 Build 0)  -->
<!DOCTYPE svg PUBLIC "-//W3C//DTD SVG 1.1//EN" "http://www.w3.org/Graphics/SVG/1.1/DTD/svg11.dtd">
<svg stroke="#fffff" fill="#0a3153"  version="1.1" id="Layer_1" xmlns="http://www.w3.org/2000/svg" xmlns:xlink="http://www.w3.org/1999/xlink" x="0px" y="0px"
	 width="100px" height="99.864px" viewBox="0 0 100 99.864" enable-background="new 0 0 100 99.864" xml:space="preserve">
<g>
	<path  d="M36.439,65.202c2.176,5.562,7.248,9.506,13.578,9.506s11.403-3.945,13.579-9.506H36.439z"/>
	<path  d="M43.229,46.872c0,2.624-2.127,4.754-4.752,4.754c-2.624,0-4.752-2.13-4.752-4.754s2.128-4.753,4.752-4.753
		C41.102,42.119,43.229,44.246,43.229,46.872"/>
	<path  d="M66.312,46.872c0,2.624-2.127,4.754-4.752,4.754s-4.753-2.13-4.753-4.754s2.128-4.753,4.753-4.753
		S66.312,44.246,66.312,46.872"/>
	<path  d="M77.18,78.781c1.375-8.209,8.883-13.241,4.777-32.324c0,0,0,0.022,0,0.025
		c-3.014-14.884-16.166-26.088-31.938-26.088c-15.767,0-28.911,11.194-31.935,26.065v-0.003
		c-4.105,19.083,3.405,24.115,4.777,32.324c0.75,4.467-2.715,9.638-2.715,12.221c0,5.43,6.789,8.862,6.789,8.862l4.074-7.504
		c0.62-1.388,1.634-2.058,2.716-1.356l5.431,4.073c0,0,3.172-6.349,3.442-10.362c2.385,0.552,4.867,0.857,7.422,0.857
		c2.553,0,5.038-0.306,7.423-0.86c0.271,4.017,3.445,10.367,3.445,10.367l5.431-4.074c1.083-0.702,2.093-0.029,2.716,1.355
		l4.073,7.504c0,0,6.789-3.431,6.789-8.86C79.895,88.417,76.432,83.248,77.18,78.781 M22.86,52.981c0-3.415,0.662-6.669,1.815-9.682
		c5.505-0.683,21.78-3.844,23.769-17.394c0.522-0.029,1.044-0.08,1.573-0.08s1.048,0.051,1.572,0.08
		c1.987,13.551,18.265,16.711,23.768,17.394c1.156,3.013,1.815,6.266,1.815,9.682c0,14.976-12.184,27.156-27.155,27.156
		C35.043,80.137,22.86,67.957,22.86,52.981"/>
</g>
</svg>
