<svg xmlns="http://www.w3.org/2000/svg" xmlns:xlink="http://www.w3.org/1999/xlink" version="1.1" id="Your_Icon" x="0px" y="0px" viewBox="5.0 -10.0 100.0 135.0" enable-background="new 0 0 100 100" xml:space="preserve" height="100px" width="100px">
<g>
	<g>
		<g>
			<g>
			</g>
		</g>
		<g>
		</g>
	</g>
</g>
<g>
	<g>
		<g>
			<path d="M58.959,70.944c-0.317,0-0.634-0.101-0.898-0.299C44.046,60.172,29.223,59.641,26.394,59.641     c-0.363,0-0.564,0.009-0.583,0.009c-0.632,0.021-1.245-0.363-1.473-0.973c-4.396-11.761-0.153-21.768,0.03-22.188     c0.235-0.541,0.765-0.893,1.354-0.902c17.89-0.257,27.631-7.36,32.313-10.773c0.457-0.333,1.062-0.38,1.563-0.125     c0.503,0.256,0.82,0.772,0.82,1.337c0,2.628,0.011,13.04,0.021,23.062c0.01,9.297,0.019,18.259,0.019,20.357     c0,0.567-0.32,1.087-0.828,1.341C59.418,70.892,59.188,70.944,58.959,70.944z M26.802,56.645     c3.599,0.053,17.202,0.886,30.655,9.899c-0.003-3.864-0.01-10.566-0.017-17.454c-0.009-7.739-0.017-15.711-0.02-20.152     c-5.459,3.759-15.02,9.178-30.624,9.626C25.975,41.026,24.051,48.346,26.802,56.645z"/>
			<path fill="none" stroke="#000000" stroke-width="3" stroke-miterlimit="10" d="M53.408,83.094"/>
			<path d="M25.716,59.651L22.898,59.6c-4.139,0-7.402-5.277-7.402-12.014c0-6.737,3.264-12.014,7.43-12.014h3.176v3h-3.176     c-2.095,0-4.43,3.702-4.43,9.014c0,5.312,2.334,9.014,4.43,9.014l2.845,0.052L25.716,59.651z"/>
		</g>
		<g>
			<path d="M76.453,27.086l-2.48,1.981c3.613,4.856,5.831,11.376,5.831,18.543c0,7.171-2.219,13.689-5.831,18.543l2.48,1.984     c4.056-5.412,6.551-12.612,6.551-20.527C83.004,39.7,80.509,32.497,76.453,27.086z"/>
			<path d="M65.851,36.581c1.55,3.303,2.436,7.053,2.436,11.029c0,3.981-0.886,7.726-2.436,11.031l2.558,2.046     c1.956-3.881,3.077-8.335,3.077-13.077c0-4.738-1.121-9.191-3.077-13.075L65.851,36.581z"/>
		</g>
	</g>
	<path d="M33.079,75.772c-2.398,0-4.349-1.951-4.349-4.349V56.907l8.698,1.098v13.419C37.428,73.821,35.477,75.772,33.079,75.772z    M31.73,60.31v11.114c0,0.743,0.605,1.349,1.349,1.349c0.744,0,1.349-0.605,1.349-1.349V60.649L31.73,60.31z"/>
</g>
</svg>