<svg stroke="#fffff" fill="#0a3153" xmlns="http://www.w3.org/2000/svg" xmlns:xlink="http://www.w3.org/1999/xlink" version="1.1" id="Layer_1" x="0px" y="0px" width="90px" height="90px" viewBox="4.5 -9.0 90.0 121.5" enable-background="new 0 0 90 90" xml:space="preserve">
<g id="Layer_2">
</g>
<g id="Layer_3">
</g>
<line fill="none" stroke="#0a3153" stroke-width="3" stroke-linecap="round" stroke-linejoin="round" stroke-miterlimit="10" x1="10.467" y1="77.135" x2="79.146" y2="77.135"/>
<g>
	<path d="M79.112,30.03l-6.774-10.687c-0.274-0.434-0.753-0.697-1.267-0.697H19.33c-0.469,0-0.91,0.219-1.194,0.592l-8.191,10.77   c-0.431,0.264-0.721,0.734-0.721,1.276v7.198c0,3.002,1.354,5.69,3.479,7.498v30.86c0,0.829,0.672,1.5,1.5,1.5s1.5-0.671,1.5-1.5   V47.724c1.053,0.385,2.185,0.607,3.37,0.607c3.598,0,6.743-1.946,8.462-4.835c1.66,2.79,4.652,4.689,8.097,4.816v28.135   c0,0.829,0.672,1.5,1.5,1.5s1.5-0.671,1.5-1.5V47.961c2.437-0.679,4.491-2.27,5.777-4.385c1.729,2.844,4.848,4.754,8.412,4.754   c3.666,0,6.865-2.017,8.561-4.996c1.696,2.979,4.895,4.996,8.561,4.996c1.185,0,2.317-0.221,3.37-0.607V76.84   c0,0.829,0.672,1.5,1.5,1.5s1.5-0.671,1.5-1.5V45.979c2.125-1.808,3.479-4.496,3.479-7.498v-7.198   C79.791,30.759,79.52,30.298,79.112,30.03z M69.942,45.33c-3.777,0-6.85-3.072-6.85-6.849c0-0.829-0.672-1.5-1.5-1.5   c-0.072,0-0.141,0.011-0.211,0.021c-0.07-0.01-0.139-0.021-0.211-0.021c-0.828,0-1.5,0.671-1.5,1.5c0,3.776-3.072,6.849-6.85,6.849   c-3.776,0-6.849-3.072-6.849-6.849c0-0.829-0.672-1.5-1.5-1.5c-0.022,0-0.042,0.005-0.063,0.006   c-0.022-0.001-0.042-0.006-0.063-0.006c-0.828,0-1.5,0.671-1.5,1.5c0,3.776-3.072,6.849-6.85,6.849   c-3.776,0-6.849-3.072-6.849-6.849c0-0.829-0.672-1.5-1.5-1.5c-0.039,0-0.075,0.008-0.113,0.011   c-0.038-0.003-0.074-0.011-0.113-0.011c-0.828,0-1.5,0.671-1.5,1.5c0,3.776-3.072,6.849-6.85,6.849   c-3.776,0-6.849-3.072-6.849-6.849v-6.513l7.851-10.322h50.172l6.493,10.244c0.015,0.023,0.036,0.04,0.052,0.062v6.529   C76.791,42.258,73.719,45.33,69.942,45.33z"/>
	<path d="M52.074,51.718c-0.586-0.586-1.535-0.586-2.121,0c-0.586,0.585-0.586,1.535,0,2.121l11.174,11.174   c0.293,0.293,0.677,0.439,1.061,0.439s0.768-0.146,1.061-0.439c0.586-0.585,0.586-1.535,0-2.121L52.074,51.718z"/>
	<path d="M50.322,57.537c-0.586-0.586-1.535-0.586-2.121,0c-0.586,0.585-0.586,1.536,0,2.121l6.229,6.229   c0.293,0.293,0.677,0.439,1.061,0.439s0.768-0.146,1.061-0.439c0.586-0.585,0.586-1.536,0-2.121L50.322,57.537z"/>
	<path d="M26.03,53.089c-1.645,0-2.979,1.334-2.979,2.979c0,1.391,0.958,2.55,2.247,2.878v5.206h1.374v-5.178   c1.336-0.294,2.338-1.481,2.338-2.906C29.009,54.423,27.675,53.089,26.03,53.089z"/>
	<path d="M70.852,30.217H17.149c-0.828,0-1.5,0.671-1.5,1.5c0,0.829,0.672,1.5,1.5,1.5h53.702c0.828,0,1.5-0.671,1.5-1.5   C72.352,30.888,71.68,30.217,70.852,30.217z"/>
</g>
</svg>